#define gps_diagram_width 141
#define gps_diagram_height 75
static unsigned char gps_diagram_bits[] = {
   0x00, 0x00, 0x00, 0x00, 0x00, 0x00, 0x00, 0x00, 0x00, 0x00, 0x00, 0x00,
   0x00, 0x00, 0x00, 0x00, 0x00, 0x00, 0x00, 0x00, 0x00, 0x00, 0x00, 0x00,
   0x00, 0x00, 0x00, 0x00, 0x00, 0x00, 0x00, 0x00, 0x00, 0x00, 0x00, 0x00,
   0x00, 0x00, 0x00, 0x00, 0x00, 0x00, 0x00, 0x00, 0x00, 0x00, 0x00, 0x00,
   0x00, 0x00, 0x00, 0x00, 0x00, 0x00, 0x00, 0x00, 0x00, 0x00, 0x00, 0x00,
   0x00, 0x00, 0x00, 0x00, 0x00, 0x00, 0x00, 0x00, 0x00, 0x00, 0x00, 0x00,
   0xf0, 0xff, 0xff, 0xff, 0xff, 0xff, 0xff, 0xff, 0xff, 0xff, 0xff, 0xff,
   0xff, 0xff, 0xff, 0xff, 0xff, 0x01, 0xf0, 0xff, 0xff, 0xff, 0xff, 0xff,
   0xff, 0xff, 0xff, 0xff, 0xff, 0xff, 0xff, 0xff, 0xff, 0xff, 0xff, 0x01,
   0x30, 0x00, 0x00, 0x00, 0x00, 0x00, 0x00, 0x00, 0x00, 0x00, 0x00, 0x00,
   0x00, 0x00, 0x00, 0x00, 0x80, 0x01, 0x30, 0x00, 0x00, 0x00, 0x00, 0x00,
   0x00, 0x00, 0x00, 0x00, 0x00, 0x00, 0x00, 0x00, 0x00, 0x00, 0x80, 0x01,
   0x30, 0x00, 0x00, 0x00, 0x00, 0x00, 0x00, 0x00, 0x00, 0x00, 0x00, 0x00,
   0x00, 0x00, 0x00, 0x00, 0x80, 0x01, 0x30, 0x00, 0x00, 0x00, 0x00, 0x00,
   0x00, 0x00, 0x00, 0x00, 0x00, 0x00, 0x00, 0x00, 0x00, 0x00, 0x80, 0x01,
   0x30, 0xf8, 0x01, 0x00, 0x00, 0x00, 0x00, 0x00, 0x00, 0x00, 0x00, 0x00,
   0x00, 0x00, 0x00, 0x00, 0x80, 0x01, 0x30, 0xf8, 0x01, 0x00, 0x00, 0x00,
   0x00, 0x00, 0x00, 0x00, 0x00, 0x00, 0x00, 0x00, 0x00, 0x00, 0x80, 0x01,
   0x30, 0x78, 0x00, 0x00, 0x00, 0x00, 0x00, 0x00, 0x00, 0x00, 0x00, 0x00,
   0x00, 0x00, 0x00, 0x00, 0x80, 0x01, 0x30, 0xd8, 0x00, 0x00, 0x00, 0x00,
   0x00, 0x00, 0x00, 0x00, 0x00, 0x00, 0x00, 0x00, 0x00, 0x00, 0x80, 0x01,
   0x30, 0x98, 0x01, 0x00, 0x00, 0x00, 0x00, 0x00, 0x00, 0x00, 0x00, 0x00,
   0x00, 0x00, 0x00, 0x00, 0x80, 0x01, 0x30, 0x18, 0x03, 0x00, 0x00, 0x00,
   0x00, 0x00, 0x00, 0x00, 0x00, 0x00, 0x00, 0x00, 0x00, 0x00, 0x80, 0x01,
   0x30, 0x00, 0x06, 0x00, 0x00, 0x00, 0x00, 0x00, 0x00, 0x00, 0x00, 0x00,
   0x00, 0x00, 0x00, 0x00, 0x80, 0x01, 0x30, 0x00, 0x0c, 0x00, 0x00, 0x00,
   0x00, 0x00, 0x00, 0x00, 0x00, 0x00, 0x00, 0x00, 0x00, 0x00, 0x80, 0x01,
   0x30, 0x00, 0x18, 0x00, 0x00, 0x00, 0x00, 0x00, 0x00, 0x00, 0x00, 0x00,
   0x00, 0x00, 0x00, 0x00, 0x80, 0x01, 0x30, 0x00, 0x30, 0x00, 0x00, 0x00,
   0x00, 0x00, 0x00, 0x00, 0x00, 0x00, 0x00, 0x00, 0x00, 0x00, 0x80, 0x01,
   0x30, 0x00, 0x00, 0x00, 0x00, 0x00, 0x00, 0x00, 0x00, 0x00, 0x00, 0x00,
   0x00, 0x00, 0x00, 0x00, 0x80, 0x01, 0x30, 0x98, 0x00, 0x00, 0x00, 0x80,
   0x00, 0x00, 0x00, 0x00, 0x0c, 0x00, 0x00, 0x00, 0x00, 0x00, 0x80, 0x01,
   0x30, 0x88, 0x00, 0x84, 0x03, 0x80, 0x00, 0x00, 0x00, 0x1c, 0x08, 0x00,
   0x00, 0x00, 0x00, 0x00, 0x80, 0x01, 0x30, 0x88, 0x00, 0x04, 0x02, 0x80,
   0x00, 0x00, 0x00, 0x10, 0x08, 0x00, 0x00, 0x00, 0x00, 0x00, 0x80, 0x01,
   0x30, 0x84, 0x78, 0x1e, 0x02, 0x80, 0x78, 0x74, 0xf8, 0x10, 0x10, 0x00,
   0x00, 0x00, 0x00, 0x00, 0x80, 0x01, 0x30, 0x84, 0x84, 0x04, 0x02, 0x80,
   0xcc, 0x8c, 0xcc, 0x10, 0x10, 0x00, 0x00, 0x00, 0x00, 0x00, 0x80, 0x01,
   0x30, 0x84, 0x80, 0x04, 0x02, 0x80, 0x84, 0x84, 0x84, 0x10, 0x10, 0x00,
   0x00, 0x00, 0x00, 0x00, 0x80, 0x01, 0x30, 0x84, 0xf8, 0x04, 0x02, 0x80,
   0x84, 0x84, 0x84, 0x10, 0x10, 0x00, 0x00, 0x00, 0x00, 0x00, 0x80, 0x01,
   0x30, 0x84, 0x84, 0x04, 0x02, 0x80, 0x84, 0x84, 0x84, 0x10, 0x10, 0x00,
   0x00, 0x00, 0x00, 0x00, 0x80, 0x01, 0x30, 0x88, 0xc4, 0x04, 0x82, 0x80,
   0xcc, 0x84, 0xcc, 0x10, 0x08, 0x00, 0x00, 0x00, 0x00, 0x00, 0x80, 0x01,
   0x30, 0x88, 0xb8, 0x9c, 0x8f, 0x80, 0x78, 0x84, 0xf8, 0x7c, 0x08, 0x00,
   0x00, 0x00, 0x00, 0x00, 0x80, 0x01, 0x30, 0x18, 0x00, 0x00, 0x80, 0x00,
   0x00, 0x00, 0x80, 0x00, 0x0c, 0x00, 0x00, 0x00, 0x00, 0x00, 0x80, 0x01,
   0x30, 0x00, 0x00, 0x00, 0x00, 0x00, 0x00, 0x00, 0xc8, 0x00, 0x00, 0x00,
   0x00, 0x00, 0x00, 0x00, 0x80, 0x01, 0x30, 0x00, 0x00, 0x00, 0x00, 0x00,
   0x00, 0x00, 0x70, 0x00, 0x00, 0x00, 0x00, 0x00, 0x00, 0x00, 0x80, 0x01,
   0x30, 0x00, 0x00, 0x00, 0x00, 0x00, 0x00, 0x00, 0x00, 0x00, 0x00, 0x00,
   0x00, 0x00, 0x00, 0x00, 0x80, 0x01, 0x30, 0x00, 0x00, 0x00, 0x00, 0x00,
   0x00, 0x00, 0x00, 0x00, 0x00, 0x00, 0x00, 0x00, 0x00, 0x00, 0x80, 0x01,
   0x30, 0x00, 0x00, 0x00, 0x00, 0x00, 0x00, 0x00, 0x00, 0x00, 0x00, 0x00,
   0x00, 0x00, 0x00, 0x00, 0x80, 0x01, 0x30, 0x00, 0x00, 0x00, 0x00, 0x00,
   0x00, 0x00, 0x00, 0x00, 0x00, 0x00, 0x00, 0x00, 0x00, 0x00, 0x80, 0x01,
   0x30, 0x00, 0x00, 0x00, 0x00, 0x00, 0x00, 0x00, 0x00, 0x00, 0x00, 0x00,
   0x00, 0x00, 0x00, 0x00, 0x80, 0x01, 0x30, 0x00, 0x00, 0x00, 0x00, 0x00,
   0x00, 0x00, 0x00, 0x00, 0x00, 0x00, 0x00, 0x00, 0x00, 0x00, 0x80, 0x01,
   0x30, 0x00, 0x80, 0x7f, 0x00, 0x00, 0x00, 0x00, 0x00, 0x00, 0x00, 0x00,
   0x00, 0x00, 0x00, 0x00, 0x80, 0x01, 0x30, 0x00, 0xe0, 0xf1, 0x01, 0x00,
   0x00, 0x00, 0x00, 0x00, 0x00, 0x00, 0x00, 0x00, 0x00, 0x00, 0x80, 0x01,
   0x30, 0x00, 0xf0, 0xe0, 0x03, 0x00, 0x00, 0x13, 0x00, 0x00, 0x00, 0x10,
   0x00, 0x00, 0x00, 0x80, 0x81, 0x01, 0x30, 0x00, 0xf8, 0xe0, 0x07, 0x00,
   0x00, 0x11, 0x80, 0xe0, 0x01, 0x10, 0x00, 0x00, 0x00, 0x0f, 0x81, 0x01,
   0x30, 0x00, 0xfc, 0xc0, 0x0f, 0x00, 0x00, 0x11, 0x80, 0x10, 0x03, 0x10,
   0x00, 0x00, 0x80, 0x18, 0x81, 0x01, 0x30, 0x00, 0x7e, 0xc0, 0x1f, 0x00,
   0x80, 0x10, 0xcf, 0x03, 0x02, 0x10, 0x8f, 0x0e, 0x1f, 0x10, 0x82, 0x01,
   0x30, 0x00, 0x7e, 0x80, 0x1f, 0x00, 0x80, 0x90, 0x90, 0x00, 0x02, 0x90,
   0x99, 0x91, 0x19, 0x10, 0x82, 0x01, 0x30, 0x00, 0x3f, 0x80, 0x3f, 0x00,
   0x80, 0x10, 0x90, 0x00, 0x01, 0x90, 0x90, 0x90, 0x10, 0x08, 0x82, 0x01,
   0x30, 0x00, 0xbf, 0x63, 0x3f, 0x00, 0x80, 0x10, 0x9f, 0x80, 0x00, 0x90,
   0x90, 0x90, 0x10, 0x04, 0x82, 0x01, 0x30, 0x00, 0x9f, 0x63, 0x3f, 0x00,
   0x80, 0x90, 0x90, 0x40, 0x00, 0x90, 0x90, 0x90, 0x10, 0x02, 0x82, 0x01,
   0x30, 0x00, 0x9f, 0x67, 0x3e, 0x00, 0x00, 0x91, 0x98, 0x20, 0x10, 0x90,
   0x99, 0x90, 0x19, 0x01, 0x81, 0x01, 0x30, 0x00, 0x8f, 0x6f, 0x3e, 0x00,
   0x00, 0x11, 0x97, 0xf3, 0x13, 0x10, 0x8f, 0x10, 0x9f, 0x1f, 0x81, 0x01,
   0x30, 0x00, 0x8f, 0x7d, 0x3c, 0x00, 0x00, 0x03, 0x00, 0x00, 0x10, 0x00,
   0x00, 0x00, 0x10, 0x80, 0x81, 0x01, 0x30, 0x00, 0x87, 0x79, 0x3c, 0x00,
   0x00, 0x00, 0x00, 0x00, 0x00, 0x00, 0x00, 0x00, 0x19, 0x00, 0x80, 0x01,
   0x30, 0x00, 0x87, 0x71, 0x38, 0x00, 0x00, 0x00, 0x00, 0x00, 0x00, 0x00,
   0x00, 0x00, 0x0e, 0x00, 0x80, 0x01, 0x30, 0x00, 0x83, 0x61, 0x30, 0x00,
   0x00, 0x00, 0x00, 0x00, 0x00, 0x00, 0x00, 0x00, 0x80, 0x01, 0x80, 0x01,
   0x30, 0x00, 0x82, 0x61, 0x10, 0x00, 0x00, 0x00, 0x00, 0x00, 0x00, 0x00,
   0x00, 0x00, 0x00, 0x03, 0x80, 0x01, 0x30, 0x00, 0x3e, 0x00, 0x1f, 0x00,
   0x00, 0x00, 0x00, 0x00, 0x00, 0x00, 0x00, 0x00, 0x00, 0x06, 0x80, 0x01,
   0x30, 0x00, 0x7c, 0x80, 0x0f, 0x00, 0x00, 0x00, 0x00, 0x00, 0x00, 0x00,
   0x00, 0x00, 0x00, 0x0c, 0x80, 0x01, 0x30, 0x00, 0x78, 0x80, 0x07, 0x00,
   0x00, 0x00, 0x00, 0x00, 0x00, 0x00, 0x00, 0x00, 0x00, 0x18, 0x83, 0x01,
   0x30, 0x00, 0x70, 0x80, 0x01, 0x00, 0x00, 0x00, 0x00, 0x00, 0x00, 0x00,
   0x00, 0x00, 0x00, 0x30, 0x83, 0x01, 0x30, 0x00, 0xc0, 0xff, 0x00, 0x00,
   0x00, 0x00, 0x00, 0x00, 0x00, 0x00, 0x00, 0x00, 0x00, 0x60, 0x83, 0x01,
   0x30, 0x00, 0x00, 0x00, 0x00, 0x00, 0x00, 0x00, 0x00, 0x00, 0x00, 0x00,
   0x00, 0x00, 0x00, 0xc0, 0x83, 0x01, 0x30, 0x00, 0x00, 0x00, 0x00, 0x00,
   0x00, 0x00, 0x00, 0x00, 0x00, 0x00, 0x00, 0x00, 0x00, 0xf0, 0x83, 0x01,
   0x30, 0x00, 0x00, 0x00, 0x00, 0x00, 0x00, 0x00, 0x00, 0x00, 0x00, 0x00,
   0x00, 0x00, 0x00, 0xf0, 0x83, 0x01, 0x30, 0x00, 0x00, 0x00, 0x00, 0x00,
   0x00, 0x00, 0x00, 0x00, 0x00, 0x00, 0x00, 0x00, 0x00, 0x00, 0x80, 0x01,
   0x30, 0x00, 0x00, 0x00, 0x00, 0x00, 0x00, 0x00, 0x00, 0x00, 0x00, 0x00,
   0x00, 0x00, 0x00, 0x00, 0x80, 0x01, 0x30, 0x00, 0x00, 0x00, 0x00, 0x00,
   0x00, 0x00, 0x00, 0x00, 0x00, 0x00, 0x00, 0x00, 0x00, 0x00, 0x80, 0x01,
   0x30, 0x00, 0x00, 0x00, 0x00, 0x00, 0x00, 0x00, 0x00, 0x00, 0x00, 0x00,
   0x00, 0x00, 0x00, 0x00, 0x80, 0x01, 0xf0, 0xff, 0xff, 0xff, 0xff, 0xff,
   0xff, 0xff, 0xff, 0xff, 0xff, 0xff, 0xff, 0xff, 0xff, 0xff, 0xff, 0x01,
   0xf0, 0xff, 0xff, 0xff, 0xff, 0xff, 0xff, 0xff, 0xff, 0xff, 0xff, 0xff,
   0xff, 0xff, 0xff, 0xff, 0xff, 0x01, 0x00, 0x00, 0x00, 0x00, 0x00, 0x00,
   0x00, 0x00, 0x00, 0x00, 0x00, 0x00, 0x00, 0x00, 0x00, 0x00, 0x00, 0x00,
   0x00, 0x00, 0x00, 0x00, 0x00, 0x00, 0x00, 0x00, 0x00, 0x00, 0x00, 0x00,
   0x00, 0x00, 0x00, 0x00, 0x00, 0x00, 0x00, 0x00, 0x00, 0x00, 0x00, 0x00,
   0x00, 0x00, 0x00, 0x00, 0x00, 0x00, 0x00, 0x00, 0x00, 0x00, 0x00, 0x00,
   0x00, 0x00, 0x00, 0x00, 0x00, 0x00, 0x00, 0x00, 0x00, 0x00, 0x00, 0x00,
   0x00, 0x00, 0x00, 0x00, 0x00, 0x00 };
