/* XPM */
static char *core_icon[] = {
/* columns rows colors chars-per-pixel */
"32 32 256 2 ",
"   c #0F150E",
".  c #10150F",
"X  c #0F1A14",
"o  c #141A12",
"O  c #1E2C18",
"+  c #182217",
"@  c #21271D",
"#  c #24281E",
"$  c #1F3E24",
"%  c #262722",
"&  c #2E372B",
"*  c #263E2A",
"=  c #2B3C2B",
"-  c #243621",
";  c #303D24",
":  c #33362B",
">  c #373731",
",  c #2C5719",
"<  c #31571D",
"1  c #1D462A",
"2  c #1E522B",
"3  c #1B5C2D",
"4  c #185627",
"5  c #1E4D31",
"6  c #1C5D32",
"7  c #1C5C39",
"8  c #22452C",
"9  c #234C2D",
"0  c #28432A",
"q  c #304527",
"w  c #35412E",
"e  c #334F2B",
"r  c #2D552D",
"t  c #225629",
"y  c #345424",
"u  c #3C5025",
"i  c #33522C",
"p  c #36582F",
"a  c #2C4532",
"s  c #244D33",
"d  c #2E4C3C",
"f  c #2A4A33",
"g  c #374632",
"h  c #3B4E33",
"j  c #364B37",
"k  c #245335",
"l  c #2A5535",
"z  c #245B35",
"x  c #2A5B33",
"c  c #265539",
"v  c #245C3B",
"b  c #2B5C3B",
"n  c #335233",
"m  c #345439",
"M  c #385838",
"N  c #1D6135",
"B  c #1F663B",
"V  c #2F6223",
"C  c #22643D",
"Z  c #2A633D",
"A  c #26683C",
"S  c #326135",
"D  c #32613C",
"F  c #326C39",
"G  c #3A6935",
"H  c #414837",
"J  c #454B3B",
"K  c #404734",
"L  c #425A39",
"P  c #47593C",
"I  c #45603C",
"U  c #466037",
"Y  c #40723B",
"T  c #587A3D",
"R  c #275D41",
"E  c #2E5B44",
"W  c #2F5442",
"Q  c #335C42",
"!  c #3E5B42",
"~  c #3A5340",
"^  c #285D54",
"/  c #1E6246",
"(  c #246442",
")  c #2B6442",
"_  c #246A45",
"`  c #2D6B45",
"'  c #2B634D",
"]  c #266C4A",
"[  c #2A694D",
"{  c #276748",
"}  c #326244",
"|  c #356B4D",
" . c #3C6646",
".. c #26704C",
"X. c #357449",
"o. c #2F6650",
"O. c #2C6E52",
"+. c #28695A",
"@. c #3B6F55",
"#. c #386752",
"$. c #2A7254",
"%. c #2D7559",
"&. c #287557",
"*. c #347456",
"=. c #367A5B",
"-. c #31755F",
";. c #387C65",
":. c #237563",
">. c #494C40",
",. c #4E5742",
"<. c #555E4B",
"1. c #486A46",
"2. c #516D45",
"3. c #54694A",
"4. c #497245",
"5. c #46774E",
"6. c #557D43",
"7. c #54744C",
"8. c #5A7E4D",
"9. c #577648",
"0. c #456E51",
"q. c #5B6A51",
"w. c #467C56",
"e. c #557C55",
"r. c #636E55",
"t. c #666659",
"y. c #637556",
"u. c #6D735D",
"i. c #637B5A",
"p. c #647C55",
"a. c #427F63",
"s. c #707162",
"d. c #37847C",
"f. c #5B8747",
"g. c #4F845C",
"h. c #55825C",
"j. c #588350",
"k. c #648C4F",
"l. c #63825D",
"z. c #6A835E",
"x. c #6C8B5E",
"c. c #668954",
"v. c #659252",
"b. c #6E935C",
"n. c #6C9D58",
"m. c #739B54",
"M. c #7D9754",
"N. c #66984F",
"B. c #6FA35A",
"V. c #6DA457",
"C. c #75AC5D",
"Z. c #7AA75C",
"A. c #42826A",
"S. c #498665",
"D. c #5C8C68",
"F. c #5F9362",
"G. c #428F7B",
"H. c #5D967A",
"J. c #6A8A62",
"K. c #768B65",
"L. c #7D8A6B",
"P. c #788867",
"I. c #649768",
"U. c #729361",
"Y. c #7C9E6D",
"T. c #779867",
"R. c #7C9572",
"E. c #779A74",
"W. c #6AA46A",
"Q. c #6FA360",
"!. c #76A363",
"~. c #7AAB65",
"^. c #7CAB6C",
"/. c #7BA564",
"(. c #7EB068",
"). c #7DB067",
"_. c #7CA173",
"`. c #77AA75",
"'. c #6BAB7D",
"]. c #808E6B",
"[. c #808170",
"{. c #898E76",
"}. c #8B8E79",
"|. c #8A9575",
" X c #8A9973",
".X c #879878",
"XX c #939F7A",
"oX c #969F72",
"OX c #85A667",
"+X c #83A36A",
"@X c #84AB6D",
"#X c #88AA68",
"$X c #83B36D",
"%X c #8CB36E",
"&X c #84B96A",
"*X c #8AA474",
"=X c #84AC74",
"-X c #89A37D",
";X c #8AAD7A",
":X c #88A574",
">X c #94A779",
",X c #84B174",
"<X c #8CB373",
"1X c #8CBA75",
"2X c #8DB37C",
"3X c #8EB97B",
"4X c #87BB70",
"5X c #96B27C",
"6X c #99B67A",
"7X c #95BB7D",
"8X c #9ABE7D",
"9X c #93B475",
"0X c #8FC178",
"qX c #92C37D",
"wX c #659A82",
"eX c #6FA79A",
"rX c #7FBC91",
"tX c #71A686",
"yX c #86AB88",
"uX c #9DA487",
"iX c #97AD81",
"pX c #9AAC8A",
"aX c #9AAD87",
"sX c #89B581",
"dX c #88BA86",
"fX c #92B482",
"gX c #92B982",
"hX c #99BD89",
"jX c #95B48E",
"kX c #A0AD85",
"lX c #A3AF8A",
"zX c #A1B086",
"xX c #AABA8D",
"cX c #A5B28A",
"vX c #ACB593",
"bX c #B2BD96",
"nX c #97C383",
"mX c #9CCA86",
"MX c #9DCC89",
"NX c #9CC685",
"BX c #8CC294",
"VX c #A3C886",
"CX c #A3CC8C",
"ZX c #A1C484",
"AX c #A1D18D",
"SX c #A2CC90",
"DX c #B3C394",
"FX c #B7C29B",
"GX c #BCCB9C",
"HX c #B9C69D",
"JX c #A6D493",
"KX c #AAD595",
"LX c #ADD999",
"PX c #8AC9A0",
"IX c #C3D2A1",
"UX c None",
/* pixels */
"UXUXUXUXUXUXUXUXUXUXUXUXUXUX:X_.R.J.UXUXUXUXUXUXUXUXUXUXUXUXUXUX",
"UXUXUXUXUXUXUXUXUXUXN./.=XgX;X*XY.U.J.z.y.3.UXUXUXUXUXUXUXUXUXUX",
"UXUXUXUXUXUXUXUXN.C.).3X<X3X=X+XwXH.c.j.2.2.I h UXUXUXUXUXUXUXUX",
"UXUXUXUXUXUXUX$XqXqX0XqX%XOX@X*X.XE.U.x.c.2.U i q UXUXUXUXUXUXUX",
"UXUXUXUXUX).mXLXJXmXqX8XnX7X9X;X*X*X-X.XE.z.3.L q - O UXUXUXUXUX",
"UXUXUXUX(.MXKXJXVXVXCXnXnX6X2XgX5XaXpX-XR.P.y.1.i 0 - O UXUXUXUX",
"UXUXUXUXCXPXBXVXVXVXZX%X#X9X5X5XiXpXpXXXK.P.y.1.P n ^ X % > UXUX",
"UXUXUXSXMXdXAXLXKXJXdXZ.$X2XgX>XoXXXpXyXE.D.e.1.I h . J s.t.UXUX",
"UXUX3XSXqXVXJXLXLXdX'.Z.).@X*X*X;XsX-XyXeXD.e.3.M o s.}.L.H UXUX",
"UXUXMX4X&XVXMXqXqX&XV.m.M.+X,XfXdXyX.XtXwXD.7.j # |.uX}.~ * UXUX",
"UXgXnXC.C.0XqX%X4XOXm.V.~.,XK.u.r.q.,.j l.l.* g lXvX}.~ s s $ UX",
"UXhX<XC.Z.1X9X%X%X$XC.C.^.sXfX].XXL.H ! j.X r.DXbXL.c m c s 8 UX",
"UXhX@XW.`.6X7X3X1X<X^.!.^._. XkX Xw 7.3.o |.GXHXp.2 9 l c c c UX",
"UXfXOXW.`.7X5X;X=X~.B.Q.x.cXxX Xg F.M # kXIXbX4.2 2 k k c c k UX",
"-X2X=X/.$XgX,X=X/.m.n.P.GXDXK.n W.0 H DXIXcXG t t 2 k v c R k 9 ",
"-X=XQ.!.^.`.tX`.T.m.|.IXDXy.U j.o r.DXIX-XF S x z 6 v v l ( c c ",
"-XY.v.N.m.T.U.+XT.kXIXDX,.8.7.. L.DXGXK.F S S S r v C v x v v v ",
"L.b.f.f.k.c.k.z.vXIXkXH F.M + |.xXxXI.X.F A A b b D } v z v v R ",
"UXl.6.T f.T p.HXGX|.#.F.- &  XkXiXI.G.=.` A A C _ _ ( b [ +.b UX",
"UXp.8.6.4.P.HXDXr.1.h.  K L.XX].S.S.;.*.X.{ ] ( B b b z 7 / { UX",
"UXi.l.9.{.vXlXJ G 4.+ @ H ,.q.r.~ S.A.=.*...| ) A C N N N _ -.UX",
"UXq.<.}.uX|.; , V Y 5.e.g.h.g.g.S.A.;.-.@.| O._ _ _ N N ( $.;.UX",
"UXJ [.}.u.; y , < @.A.5.5.w.w.a.d.;.-.@.%.....] ] B N B ..-.UXUX",
"UXt.s.J d u u y y G  .4.4.0.0.0.0.-.+.%...] _ .._ B B ..&.%.UXUX",
"UX> % g h e e y i p S D  .| | #.o.$.$.%...B B B B B ..&.&.UXUXUX",
"UXUXUXUXw h n n r i i n D } E [ O.O.%.$.$...B N z _ :.] UXUXUXUX",
"UXUXUXUX& = a f 9 9 9 ^ M ~ } } [ O.....` ) x r t 3 N N UXUXUXUX",
"UXUXUXUXUX& = * 0 1 1 ^ ^ Q E ) } }  .} Z Z B 3 3 3 4 UXUXUXUXUX",
"UXUXUXUXUXUXUXw a f 1 1 5 c c b b b C ( _ _ B 3 3 UXUXUXUXUXUXUX",
"UXUXUXUXUXUXUXUXa d f c c c R R ( R ( ] ] ( C 7 UXUXUXUXUXUXUXUX",
"UXUXUXUXUXUXUXUXUXUXd W E E ' o.o.[ [ { ( ( UXUXUXUXUXUXUXUXUXUX",
"UXUXUXUXUXUXUXUXUXUXUXUXUXUXE o.o.o.UXUXUXUXUXUXUXUXUXUXUXUXUXUX"
};
